<svg xmlns="http://www.w3.org/2000/svg" width="100" height="100" viewBox="0 0 100 100" fill="none"><path d="M21.875 35.9375C21.4606 35.9375 21.0632 35.7729 20.7701 35.4799C20.4771 35.1868 20.3125 34.7894 20.3125 34.375V12.5C20.3125 12.0856 20.4771 11.6882 20.7701 11.3951C21.0632 11.1021 21.4606 10.9375 21.875 10.9375C22.2894 10.9375 22.6868 11.1021 22.9799 11.3951C23.2729 11.6882 23.4375 12.0856 23.4375 12.5V34.375C23.4375 34.7894 23.2729 35.1868 22.9799 35.4799C22.6868 35.7729 22.2894 35.9375 21.875 35.9375Z" fill="black"></path><path d="M87.1641 96.875H29.6875C27.2019 96.8725 24.8187 95.884 23.0611 94.1264C21.3035 92.3688 20.315 89.9856 20.3125 87.5V81.25C20.3125 80.8356 20.4771 80.4382 20.7701 80.1451C21.0632 79.8521 21.4606 79.6875 21.875 79.6875C22.2894 79.6875 22.6868 79.8521 22.9799 80.1451C23.2729 80.4382 23.4375 80.8356 23.4375 81.25V87.5C23.4375 89.1576 24.096 90.7473 25.2681 91.9194C26.4402 93.0915 28.0299 93.75 29.6875 93.75C31.3451 93.75 32.9348 93.0915 34.1069 91.9194C35.279 90.7473 35.9375 89.1576 35.9375 87.5C35.94 86.5407 35.7197 85.5939 35.2937 84.7344C34.957 84.0497 34.8017 83.2899 34.8427 82.528C34.8838 81.766 35.1198 81.0274 35.5281 80.3828C35.9518 79.6922 36.5457 79.122 37.2529 78.7266C37.9601 78.3313 38.757 78.1242 39.5672 78.125H87.5C88.8084 78.1249 90.1024 78.3986 91.2987 78.9286C92.495 79.4587 93.5671 80.2332 94.446 81.2025C95.3249 82.1718 95.9912 83.3143 96.402 84.5566C96.8128 85.7989 96.959 87.1134 96.8313 88.4156C96.5434 90.7682 95.398 92.932 93.6143 94.4928C91.8307 96.0536 89.534 96.9018 87.1641 96.875ZM36.6109 93.75H87.1641C88.7582 93.7836 90.3089 93.2284 91.5195 92.1907C92.7302 91.153 93.5159 89.7056 93.7266 88.125C93.814 87.2552 93.718 86.3768 93.4448 85.5465C93.1715 84.7162 92.7272 83.9524 92.1404 83.3044C91.5536 82.6565 90.8374 82.1389 90.0381 81.785C89.2388 81.4312 88.3741 81.2489 87.5 81.25H39.5672C39.2893 81.253 39.0166 81.3261 38.7746 81.4627C38.5326 81.5993 38.329 81.7949 38.1828 82.0313C38.0542 82.2239 37.9785 82.447 37.9631 82.6782C37.9478 82.9093 37.9933 83.1404 38.0953 83.3484C38.9298 85.0287 39.2347 86.9227 38.9697 88.7799C38.7046 90.6372 37.8821 92.3703 36.6109 93.75Z" fill="black"></path><path d="M62.9687 50H46.875C46.4606 50 46.0632 49.8354 45.7701 49.5424C45.4771 49.2493 45.3125 48.8519 45.3125 48.4375C45.3125 48.0231 45.4771 47.6257 45.7701 47.3326C46.0632 47.0396 46.4606 46.875 46.875 46.875H62.9687C63.3832 46.875 63.7806 47.0396 64.0736 47.3326C64.3666 47.6257 64.5312 48.0231 64.5312 48.4375C64.5312 48.8519 64.3666 49.2493 64.0736 49.5424C63.7806 49.8354 63.3832 50 62.9687 50Z" fill="black"></path><path d="M75 59.375H48.4375C48.0231 59.375 47.6257 59.2104 47.3326 58.9174C47.0396 58.6243 46.875 58.2269 46.875 57.8125C46.875 57.3981 47.0396 57.0007 47.3326 56.7076C47.6257 56.4146 48.0231 56.25 48.4375 56.25H75C75.4144 56.25 75.8118 56.4146 76.1049 56.7076C76.3979 57.0007 76.5625 57.3981 76.5625 57.8125C76.5625 58.2269 76.3979 58.6243 76.1049 58.9174C75.8118 59.2104 75.4144 59.375 75 59.375Z" fill="black"></path><path d="M75 68.75H48.4375C48.0231 68.75 47.6257 68.5854 47.3326 68.2924C47.0396 67.9993 46.875 67.6019 46.875 67.1875C46.875 66.7731 47.0396 66.3757 47.3326 66.0826C47.6257 65.7896 48.0231 65.625 48.4375 65.625H75C75.4144 65.625 75.8118 65.7896 76.1049 66.0826C76.3979 66.3757 76.5625 66.7731 76.5625 67.1875C76.5625 67.6019 76.3979 67.9993 76.1049 68.2924C75.8118 68.5854 75.4144 68.75 75 68.75Z" fill="black"></path><path d="M87.5 81.25C87.0856 81.25 86.6882 81.0854 86.3951 80.7924C86.1021 80.4993 85.9375 80.1019 85.9375 79.6875V12.5C85.9375 10.8424 85.279 9.25268 84.1069 8.08058C82.9348 6.90848 81.3451 6.25 79.6875 6.25H14.0625C13.6481 6.25 13.2507 6.08538 12.9576 5.79235C12.6646 5.49933 12.5 5.1019 12.5 4.6875C12.5 4.2731 12.6646 3.87567 12.9576 3.58265C13.2507 3.28962 13.6481 3.125 14.0625 3.125H79.6875C82.1731 3.12748 84.5563 4.116 86.3139 5.87362C88.0715 7.63123 89.06 10.0144 89.0625 12.5V79.6875C89.0625 80.1019 88.8979 80.4993 88.6049 80.7924C88.3118 81.0854 87.9144 81.25 87.5 81.25Z" fill="black"></path><path d="M21.875 21.875H14.0625C12.2083 21.875 10.3957 21.3252 8.85403 20.295C7.31232 19.2649 6.1107 17.8007 5.40113 16.0877C4.69155 14.3746 4.5059 12.4896 4.86763 10.671C5.22937 8.85246 6.12225 7.182 7.43337 5.87088C8.74449 4.55976 10.415 3.66688 12.2335 3.30514C14.0521 2.94341 15.9371 3.12906 17.6502 3.83863C19.3632 4.54821 20.8274 5.74982 21.8575 7.29153C22.8877 8.83324 23.4375 10.6458 23.4375 12.5C23.4375 12.9144 23.2729 13.3118 22.9799 13.6049C22.6868 13.8979 22.2894 14.0625 21.875 14.0625C21.4606 14.0625 21.0632 13.8979 20.7701 13.6049C20.4771 13.3118 20.3125 12.9144 20.3125 12.5C20.3125 11.2639 19.9459 10.0555 19.2592 9.02769C18.5724 7.99988 17.5963 7.19881 16.4543 6.72576C15.3122 6.25271 14.0556 6.12894 12.8432 6.3701C11.6308 6.61125 10.5172 7.20651 9.64308 8.08059C8.769 8.95467 8.17375 10.0683 7.93259 11.2807C7.69143 12.4931 7.8152 13.7497 8.28825 14.8918C8.7613 16.0338 9.56238 17.0099 10.5902 17.6967C11.618 18.3834 12.8264 18.75 14.0625 18.75H21.875C22.2894 18.75 22.6868 18.9146 22.9799 19.2077C23.2729 19.5007 23.4375 19.8981 23.4375 20.3125C23.4375 20.7269 23.2729 21.1243 22.9799 21.4174C22.6868 21.7104 22.2894 21.875 21.875 21.875Z" fill="black"></path><path d="M42.1875 35.9375C41.7731 35.9375 41.3757 35.7729 41.0826 35.4799C40.7896 35.1868 40.625 34.7894 40.625 34.375V21.875C40.625 21.4606 40.7896 21.0632 41.0826 20.7701C41.3757 20.4771 41.7731 20.3125 42.1875 20.3125C42.6019 20.3125 42.9993 20.4771 43.2924 20.7701C43.5854 21.0632 43.75 21.4606 43.75 21.875V34.375C43.75 34.7894 43.5854 35.1868 43.2924 35.4799C42.9993 35.7729 42.6019 35.9375 42.1875 35.9375Z" fill="black"></path><path d="M46.875 23.4375H37.5C37.0856 23.4375 36.6882 23.2729 36.3951 22.9799C36.1021 22.6868 35.9375 22.2894 35.9375 21.875C35.9375 21.4606 36.1021 21.0632 36.3951 20.7701C36.6882 20.4771 37.0856 20.3125 37.5 20.3125H46.875C47.2894 20.3125 47.6868 20.4771 47.9799 20.7701C48.2729 21.0632 48.4375 21.4606 48.4375 21.875C48.4375 22.2894 48.2729 22.6868 47.9799 22.9799C47.6868 23.2729 47.2894 23.4375 46.875 23.4375Z" fill="black"></path><path d="M48.4375 35.9376C48.2504 35.9369 48.0648 35.9036 47.8891 35.8391C47.6965 35.7672 47.5201 35.658 47.3698 35.5178C47.2196 35.3776 47.0985 35.2092 47.0134 35.0221C46.9283 34.835 46.881 34.6329 46.8742 34.4275C46.8673 34.2221 46.9011 34.0174 46.9734 33.8251L51.6609 21.3251C51.806 20.9368 52.0993 20.622 52.4764 20.45C52.8536 20.278 53.2836 20.2628 53.6719 20.4079C54.0602 20.5529 54.3749 20.8463 54.5469 21.2234C54.719 21.6005 54.7341 22.0305 54.5891 22.4188L49.9016 34.9188C49.7906 35.2177 49.5909 35.4755 49.3292 35.6576C49.0675 35.8397 48.7563 35.9374 48.4375 35.9376Z" fill="black"></path><path d="M57.8125 35.9374C57.4944 35.9377 57.1838 35.841 56.9222 35.66C56.6606 35.4791 56.4604 35.2227 56.3484 34.9249L51.6609 22.4249C51.5159 22.0366 51.531 21.6066 51.7031 21.2295C51.8751 20.8524 52.1898 20.559 52.5781 20.414C52.9664 20.269 53.3964 20.2841 53.7736 20.4561C54.1507 20.6281 54.444 20.9429 54.5891 21.3312L59.2766 33.8312C59.3489 34.0235 59.3827 34.2283 59.3758 34.4337C59.369 34.6391 59.3217 34.8411 59.2366 35.0282C59.1516 35.2153 59.0304 35.3837 58.8802 35.5239C58.7299 35.6641 58.5535 35.7733 58.3609 35.8452C58.1849 35.9076 57.9993 35.9388 57.8125 35.9374Z" fill="black"></path><path d="M71.875 35.9375C71.6324 35.9375 71.3932 35.881 71.1762 35.7725C70.9593 35.6641 70.7705 35.5066 70.625 35.3125L61.25 22.8125C61.0014 22.481 60.8946 22.0643 60.9532 21.654C61.0118 21.2438 61.231 20.8736 61.5625 20.625C61.894 20.3764 62.3107 20.2696 62.721 20.3282C63.1312 20.3868 63.5014 20.606 63.75 20.9375L73.125 33.4375C73.2991 33.6696 73.4051 33.9457 73.4312 34.2347C73.4573 34.5237 73.4023 34.8142 73.2725 35.0738C73.1428 35.3333 72.9433 35.5516 72.6965 35.7041C72.4496 35.8567 72.1652 35.9375 71.875 35.9375Z" fill="black"></path><path d="M62.5 35.9375C62.2098 35.9375 61.9254 35.8567 61.6785 35.7041C61.4317 35.5516 61.2322 35.3333 61.1025 35.0738C60.9727 34.8142 60.9178 34.5237 60.9438 34.2347C60.9699 33.9457 61.0759 33.6696 61.25 33.4375L70.625 20.9375C70.7481 20.7733 70.9024 20.6351 71.0789 20.5305C71.2555 20.426 71.4509 20.3572 71.654 20.3282C71.8572 20.2992 72.064 20.3105 72.2628 20.3614C72.4616 20.4123 72.6483 20.5019 72.8125 20.625C72.9767 20.7481 73.1149 20.9024 73.2195 21.0789C73.324 21.2555 73.3928 21.4509 73.4218 21.654C73.4508 21.8572 73.4395 22.064 73.3886 22.2628C73.3377 22.4616 73.2481 22.6483 73.125 22.8125L63.75 35.3125C63.6045 35.5066 63.4157 35.6641 63.1988 35.7725C62.9818 35.881 62.7426 35.9375 62.5 35.9375Z" fill="black"></path><path d="M56.25 32.8125H50C49.5856 32.8125 49.1882 32.6479 48.8951 32.3549C48.6021 32.0618 48.4375 31.6644 48.4375 31.25C48.4375 30.8356 48.6021 30.4382 48.8951 30.1451C49.1882 29.8521 49.5856 29.6875 50 29.6875H56.25C56.6644 29.6875 57.0618 29.8521 57.3549 30.1451C57.6479 30.4382 57.8125 30.8356 57.8125 31.25C57.8125 31.6644 57.6479 32.0618 57.3549 32.3549C57.0618 32.6479 56.6644 32.8125 56.25 32.8125Z" fill="black"></path><path d="M23.4375 78.125C19.4201 78.125 15.4929 76.9337 12.1525 74.7017C8.81211 72.4698 6.2086 69.2974 4.6712 65.5858C3.13379 61.8741 2.73154 57.79 3.5153 53.8497C4.29906 49.9095 6.23364 46.2902 9.0744 43.4494C11.9151 40.6086 15.5345 38.6741 19.4747 37.8903C23.415 37.1065 27.4991 37.5088 31.2108 39.0462C34.9224 40.5836 38.0948 43.1871 40.3267 46.5275C42.5587 49.8679 43.75 53.7951 43.75 57.8125C43.7438 63.1978 41.6017 68.3608 37.7938 72.1688C33.9858 75.9768 28.8228 78.1188 23.4375 78.125ZM23.4375 40.625C20.0381 40.625 16.7151 41.633 13.8886 43.5216C11.0622 45.4102 8.8592 48.0945 7.55832 51.2351C6.25744 54.3757 5.91707 57.8316 6.58025 61.1656C7.24344 64.4997 8.88039 67.5622 11.2841 69.9659C13.6878 72.3696 16.7503 74.0066 20.0844 74.6698C23.4184 75.3329 26.8743 74.9926 30.0149 73.6917C33.1555 72.3908 35.8398 70.1878 37.7284 67.3614C39.617 64.5349 40.625 61.2119 40.625 57.8125C40.6196 53.2557 38.8071 48.8872 35.585 45.665C32.3628 42.4429 27.9943 40.6304 23.4375 40.625Z" fill="black"></path><path d="M23.4375 68.75C21.7799 68.75 20.1902 68.0915 19.0181 66.9194C17.846 65.7473 17.1875 64.1576 17.1875 62.5C17.1875 62.0856 17.3521 61.6882 17.6451 61.3951C17.9382 61.1021 18.3356 60.9375 18.75 60.9375C19.1644 60.9375 19.5618 61.1021 19.8549 61.3951C20.1479 61.6882 20.3125 62.0856 20.3125 62.5C20.3125 63.1181 20.4958 63.7223 20.8392 64.2362C21.1825 64.7501 21.6706 65.1506 22.2416 65.3871C22.8126 65.6237 23.441 65.6855 24.0472 65.565C24.6534 65.4444 25.2102 65.1468 25.6472 64.7097C26.0843 64.2727 26.3819 63.7159 26.5025 63.1097C26.623 62.5035 26.5612 61.8751 26.3246 61.3041C26.0881 60.7331 25.6876 60.245 25.1737 59.9017C24.6598 59.5583 24.0556 59.375 23.4375 59.375C22.2014 59.375 20.993 59.0084 19.9652 58.3217C18.9374 57.6349 18.1363 56.6588 17.6633 55.5168C17.1902 54.3747 17.0664 53.1181 17.3076 51.9057C17.5488 50.6933 18.144 49.5797 19.0181 48.7056C19.8922 47.8315 21.0058 47.2363 22.2182 46.9951C23.4306 46.7539 24.6872 46.8777 25.8293 47.3508C26.9713 47.8238 27.9474 48.6249 28.6342 49.6527C29.3209 50.6805 29.6875 51.8889 29.6875 53.125C29.6875 53.5394 29.5229 53.9368 29.2299 54.2299C28.9368 54.5229 28.5394 54.6875 28.125 54.6875C27.7106 54.6875 27.3132 54.5229 27.0201 54.2299C26.7271 53.9368 26.5625 53.5394 26.5625 53.125C26.5625 52.5069 26.3792 51.9027 26.0358 51.3888C25.6925 50.8749 25.2044 50.4744 24.6334 50.2379C24.0624 50.0014 23.434 49.9395 22.8278 50.06C22.2217 50.1806 21.6648 50.4783 21.2278 50.9153C20.7908 51.3523 20.4931 51.9092 20.3725 52.5153C20.252 53.1215 20.3139 53.7499 20.5504 54.3209C20.7869 54.8919 21.1874 55.38 21.7013 55.7233C22.2153 56.0667 22.8194 56.25 23.4375 56.25C25.0951 56.25 26.6848 56.9085 27.8569 58.0806C29.029 59.2527 29.6875 60.8424 29.6875 62.5C29.6875 64.1576 29.029 65.7473 27.8569 66.9194C26.6848 68.0915 25.0951 68.75 23.4375 68.75Z" fill="black"></path><path d="M23.4375 50C23.0231 50 22.6257 49.8354 22.3326 49.5424C22.0396 49.2493 21.875 48.8519 21.875 48.4375V45.3125C21.875 44.8981 22.0396 44.5007 22.3326 44.2076C22.6257 43.9146 23.0231 43.75 23.4375 43.75C23.8519 43.75 24.2493 43.9146 24.5424 44.2076C24.8354 44.5007 25 44.8981 25 45.3125V48.4375C25 48.8519 24.8354 49.2493 24.5424 49.5424C24.2493 49.8354 23.8519 50 23.4375 50Z" fill="black"></path><path d="M23.4375 71.875C23.0231 71.875 22.6257 71.7104 22.3326 71.4174C22.0396 71.1243 21.875 70.7269 21.875 70.3125V67.1875C21.875 66.7731 22.0396 66.3757 22.3326 66.0826C22.6257 65.7896 23.0231 65.625 23.4375 65.625C23.8519 65.625 24.2493 65.7896 24.5424 66.0826C24.8354 66.3757 25 66.7731 25 67.1875V70.3125C25 70.7269 24.8354 71.1243 24.5424 71.4174C24.2493 71.7104 23.8519 71.875 23.4375 71.875Z" fill="black"></path></svg>